<svg width="800" height="800" viewBox="0 0 800 800" fill="none" xmlns="http://www.w3.org/2000/svg">
<path d="M200 394.28C200 381.669 210.212 371.429 222.879 371.429H371.429V222.851C371.429 216.574 373.94 210.882 378.069 206.724C382.2 202.567 387.946 200 394.309 200H405.691C418.36 200 428.571 210.24 428.571 222.851V371.429H577.12C584.374 371.429 590.791 374.777 594.977 379.994C598.157 383.9 600 388.869 600 394.28V405.72C600 418.331 589.789 428.571 577.12 428.571H428.571V577.149C428.571 582.086 427.009 586.634 424.331 590.374C420.2 596.177 413.394 600 405.691 600H394.309C381.64 600 371.429 589.76 371.429 577.149V428.571H222.879C215.681 428.571 209.263 425.251 205.078 420.089C201.897 416.154 200 411.16 200 405.72V394.28Z" fill="#22A0BD"/>
<path fill-rule="evenodd" clip-rule="evenodd" d="M28.5714 400C28.5714 194.866 194.866 28.5714 400 28.5714C605.134 28.5714 771.429 194.866 771.429 400C771.429 605.134 605.134 771.429 400 771.429C194.866 771.429 28.5714 605.134 28.5714 400ZM400 85.7143C226.451 85.7143 85.7143 226.423 85.7143 400C85.7143 573.577 226.451 714.286 400 714.286C573.549 714.286 714.286 573.577 714.286 400C714.286 226.423 573.549 85.7143 400 85.7143Z" fill="black"/>
</svg>
