<svg width="800" height="800" viewBox="0 0 800 800" fill="none" xmlns="http://www.w3.org/2000/svg">
<path d="M423.838 196.404V665.439C423.855 668.54 423.26 671.614 422.086 674.485C420.911 677.355 419.181 679.965 416.994 682.164C414.807 684.364 412.208 686.109 409.344 687.3C406.48 688.491 403.41 689.104 400.308 689.104C397.207 689.104 394.136 688.491 391.273 687.3C388.409 686.109 385.809 684.364 383.622 682.164C381.436 679.965 379.705 677.355 378.531 674.485C377.357 671.614 376.761 668.54 376.779 665.439V196.404L205.202 378.709C203.086 381.02 200.512 382.865 197.644 384.128C194.777 385.39 191.677 386.042 188.544 386.042C185.41 386.042 182.311 385.39 179.443 384.128C176.575 382.865 174.001 381.02 171.885 378.709C167.457 373.89 165 367.584 165 361.039C165 354.494 167.457 348.188 171.885 343.369L383.649 118.333C385.766 116.022 388.339 114.177 391.207 112.915C394.075 111.652 397.175 111 400.308 111C403.442 111 406.541 111.652 409.409 112.915C412.277 114.177 414.851 116.022 416.967 118.333L628.732 343.369C633.147 348.185 635.596 354.482 635.596 361.015C635.596 367.549 633.147 373.846 628.732 378.662C626.616 380.973 624.042 382.819 621.174 384.081C618.306 385.344 615.207 385.996 612.073 385.996C608.94 385.996 605.84 385.344 602.972 384.081C600.104 382.819 597.53 380.973 595.414 378.662L423.838 196.451V196.404Z" fill="black"/>
</svg>
